<svg width="110" height="24" viewBox="0 0 110 24" fill="none" xmlns="http://www.w3.org/2000/svg">
  <rect width="24" height="24" rx="4.8" fill="#C96342"/>
  <path d="M11.1138 3.62514C11.0636 3.63884 10.9518 3.65253 10.8628 3.65937C10.7761 3.66394 10.6939 3.67991 10.6802 3.69132C10.6688 3.70273 10.6232 3.71186 10.5776 3.71186C10.5342 3.71414 10.4726 3.72783 10.4406 3.74609C10.4087 3.76434 10.3494 3.77803 10.3106 3.78032C10.2695 3.78032 10.2353 3.78944 10.2353 3.80313C10.2353 3.81454 10.2125 3.82595 10.1851 3.82595C10.1554 3.82595 10.1029 3.84193 10.0664 3.86018C10.0322 3.87844 9.97741 3.89441 9.94775 3.89441C9.91808 3.89441 9.89298 3.90354 9.89298 3.91723C9.89298 3.92864 9.87473 3.94005 9.85191 3.94005C9.82909 3.94005 9.7903 3.95602 9.76519 3.97428C9.74238 3.99253 9.69902 4.00851 9.67392 4.00851C9.64653 4.00851 9.61231 4.02448 9.59633 4.04274C9.58036 4.06099 9.54841 4.07696 9.52559 4.07696C9.50049 4.07696 9.48224 4.08609 9.48224 4.09978C9.48224 4.11119 9.45714 4.1226 9.42519 4.1226C9.39324 4.1226 9.36814 4.13173 9.36814 4.14542C9.36814 4.15683 9.34304 4.17281 9.31109 4.18193C9.27915 4.18878 9.25405 4.20475 9.25405 4.21616C9.25405 4.22757 9.23807 4.2367 9.21982 4.2367C9.19928 4.2367 9.15364 4.25724 9.11713 4.28234C9.07834 4.30744 9.01901 4.34851 8.98021 4.37361C8.9437 4.39872 8.90263 4.41925 8.88894 4.41925C8.87753 4.41925 8.86612 4.42838 8.86612 4.44207C8.86612 4.45348 8.85471 4.46489 8.8433 4.46489C8.82961 4.46489 8.80679 4.4763 8.79082 4.48771C8.77484 4.5014 8.69497 4.56073 8.61283 4.62006C8.12221 4.9692 7.61106 5.47578 7.41482 5.80666C7.38744 5.8523 7.35321 5.89337 7.33951 5.89794C7.32582 5.9025 7.31441 5.92532 7.31441 5.95042C7.31441 5.97324 7.30529 5.99378 7.29616 5.99378C7.28475 5.99378 7.25737 6.03485 7.23226 6.08505C7.20945 6.13526 7.18206 6.17633 7.17293 6.17633C7.16153 6.17633 7.15468 6.19459 7.15468 6.21969C7.15468 6.24251 7.13871 6.27445 7.12045 6.29043C7.1022 6.3064 7.08622 6.33835 7.08622 6.36117C7.08622 6.38627 7.07709 6.40452 7.06568 6.40452C7.05428 6.40452 7.0383 6.42962 7.03146 6.46157C7.02233 6.49352 7.00635 6.51862 6.99495 6.51862C6.98125 6.51862 6.97213 6.53459 6.97213 6.55285C6.97213 6.57338 6.94931 6.62587 6.91964 6.67379C6.88998 6.71943 6.8489 6.79701 6.82837 6.84265C6.80555 6.88829 6.77816 6.93393 6.76675 6.94077C6.75306 6.94762 6.74393 6.975 6.74393 7.0001C6.74393 7.02292 6.73481 7.04346 6.72111 7.04346C6.70971 7.04346 6.6983 7.06171 6.6983 7.08682C6.6983 7.10964 6.68232 7.14158 6.66407 7.15756C6.64581 7.17353 6.62984 7.20548 6.62984 7.22829C6.62984 7.2534 6.62071 7.27165 6.60702 7.27165C6.59561 7.27165 6.5842 7.29219 6.5842 7.31729C6.5842 7.34239 6.56823 7.36977 6.54997 7.37662C6.53172 7.38575 6.51574 7.40857 6.51574 7.4291C6.51574 7.50897 6.15748 7.84213 6.06849 7.84213C6.04567 7.84213 6.00459 7.8581 5.98177 7.87636C5.95667 7.89462 5.89734 7.91059 5.8517 7.91059C5.80378 7.91059 5.75815 7.91972 5.7513 7.93341C5.74445 7.94482 5.68741 7.95623 5.62808 7.95623C5.56646 7.95623 5.4866 7.9722 5.45237 7.99046C5.41586 8.00871 5.33371 8.02468 5.26753 8.02468C5.20364 8.02468 5.14203 8.03381 5.13518 8.0475C5.12834 8.05891 5.07813 8.07032 5.02565 8.07032C4.97317 8.0726 4.90471 8.0863 4.87276 8.10455C4.84081 8.12281 4.78833 8.1365 4.7541 8.13878C4.71759 8.13878 4.69021 8.14791 4.69021 8.1616C4.69021 8.17301 4.6788 8.18442 4.66511 8.18442C4.64913 8.18442 4.62631 8.20267 4.61034 8.22321C4.57611 8.26885 4.59437 8.29167 4.71303 8.35328C4.85451 8.42858 4.87048 8.43543 4.91384 8.43543C4.93665 8.43543 4.97545 8.4514 5.00055 8.46966C5.02337 8.48791 5.07129 8.50389 5.10552 8.50389C5.13975 8.50389 5.17397 8.51302 5.18082 8.52671C5.18767 8.53812 5.22418 8.54953 5.26069 8.54953C5.2972 8.54953 5.34055 8.5655 5.36109 8.58375C5.37935 8.60201 5.43411 8.61798 5.4866 8.61798C5.5368 8.61798 5.58472 8.62711 5.59157 8.6408C5.59841 8.65221 5.63949 8.66362 5.67828 8.66362C5.71935 8.66362 5.77184 8.67731 5.79694 8.69557C5.82204 8.71154 5.88365 8.73208 5.93385 8.73893C6.12325 8.76631 6.27386 8.80054 6.29668 8.82336C6.30809 8.83477 6.35829 8.84618 6.40393 8.84618C6.45185 8.84618 6.49749 8.8553 6.50433 8.86899C6.51118 8.8804 6.56138 8.89181 6.61615 8.89181C6.66863 8.89181 6.73252 8.90779 6.75763 8.92604C6.78044 8.9443 6.84434 8.96027 6.89682 8.96027C6.94931 8.96027 6.99951 8.9694 7.00635 8.98309C7.0132 8.9945 7.06112 9.00591 7.11361 9.00591C7.16381 9.00591 7.23683 9.0196 7.27562 9.03786C7.3167 9.05611 7.40113 9.07665 7.46274 9.08349C7.69093 9.10631 7.89402 9.14282 7.91684 9.16564C7.92825 9.17705 7.99443 9.18846 8.05832 9.18846C8.1245 9.18846 8.18611 9.19759 8.19295 9.21128C8.1998 9.22269 8.25456 9.2341 8.31161 9.2341C8.36866 9.2341 8.44625 9.25007 8.48504 9.26605C8.52611 9.2843 8.62424 9.30484 8.70638 9.31169C8.92317 9.32766 9.18102 9.36645 9.21297 9.38699C9.22894 9.39612 9.32478 9.41209 9.42519 9.42122C9.78801 9.45317 10.0116 9.48283 10.039 9.50565C10.0527 9.51706 10.1622 9.53303 10.2809 9.5376C10.5981 9.55585 10.9472 9.59464 10.9997 9.62203C11.0248 9.63344 11.1526 9.64713 11.285 9.65397C11.5999 9.66538 12.0836 9.70874 12.1407 9.727C12.1658 9.73612 12.3141 9.74982 12.4716 9.75894C12.8344 9.78176 13.1995 9.82284 13.2588 9.85022C13.2839 9.86163 13.3706 9.87532 13.4528 9.87988C13.6559 9.89358 13.9548 9.94606 13.9548 9.96888C13.9548 9.97801 14.005 9.98713 14.0666 9.98713C14.1282 9.98713 14.2081 10.0031 14.2423 10.0214C14.2788 10.0396 14.3404 10.0556 14.3815 10.0556C14.4203 10.0556 14.4614 10.0647 14.4682 10.0784C14.4751 10.0898 14.5207 10.1012 14.5664 10.1012C14.612 10.1012 14.6713 10.1172 14.6941 10.1355C14.7192 10.1537 14.7672 10.1697 14.8014 10.1697C14.8356 10.1697 14.8721 10.1788 14.879 10.1925C14.8858 10.2039 14.9269 10.2153 14.9657 10.2153C15.0068 10.2153 15.0592 10.2313 15.0821 10.2496C15.1072 10.2678 15.1505 10.2838 15.1779 10.2838C15.2076 10.2838 15.2372 10.2929 15.2441 10.3066C15.2509 10.3203 15.2852 10.3294 15.3194 10.3294C15.3536 10.3294 15.4015 10.3454 15.4244 10.3637C15.4495 10.3819 15.4928 10.3979 15.5202 10.3979C15.5499 10.3979 15.5795 10.407 15.5864 10.4207C15.5932 10.4321 15.6229 10.4435 15.6503 10.4435C15.6776 10.4435 15.721 10.4595 15.7438 10.4777C15.7689 10.496 15.8123 10.512 15.8419 10.512C15.8716 10.512 15.8944 10.5211 15.8944 10.5348C15.8944 10.5462 15.915 10.5576 15.9378 10.5576C15.9629 10.5576 16.0108 10.5713 16.0473 10.5896C16.0815 10.6078 16.1432 10.6352 16.1797 10.6489C16.2185 10.6649 16.2755 10.6922 16.3097 10.7082C16.3417 10.7265 16.3919 10.7402 16.417 10.7402C16.4444 10.7402 16.4649 10.7493 16.4649 10.763C16.4649 10.7744 16.4877 10.7858 16.5174 10.7858C16.5471 10.7858 16.5904 10.8018 16.6155 10.82C16.6383 10.8383 16.6817 10.8543 16.7091 10.8543C16.7365 10.8543 16.7661 10.8634 16.773 10.8771C16.7798 10.8885 16.8437 10.8999 16.9099 10.8999C17.008 10.8999 17.0377 10.8908 17.0582 10.8565C17.0902 10.7927 17.0856 10.6945 17.0468 10.6169C17.0285 10.5827 17.0126 10.5234 17.0126 10.4869C17.0126 10.4504 17.0034 10.4207 16.9897 10.4207C16.9783 10.4207 16.9669 10.4024 16.9669 10.3773C16.9669 10.3545 16.951 10.3226 16.9327 10.3066C16.9144 10.2906 16.8985 10.2632 16.8985 10.245C16.8985 10.229 16.8734 10.1857 16.8414 10.1514C16.8095 10.1172 16.7844 10.0807 16.7844 10.0716C16.7844 10.0487 16.5471 9.80458 16.5242 9.80458C16.5151 9.80458 16.474 9.77948 16.433 9.74753C16.3919 9.71559 16.3462 9.69049 16.3348 9.69049C16.3211 9.69049 16.2983 9.67451 16.2824 9.65626C16.2664 9.638 16.2344 9.62203 16.2116 9.62203C16.1865 9.62203 16.1683 9.61062 16.1683 9.59921C16.1683 9.58552 16.15 9.57639 16.1249 9.57639C16.1021 9.57639 16.0701 9.56042 16.0542 9.54216C16.0382 9.52391 16.0131 9.50793 15.9948 9.50793C15.9789 9.50793 15.9172 9.48283 15.8579 9.45088C15.7986 9.41894 15.7256 9.39384 15.6982 9.39384C15.6685 9.39384 15.6434 9.38243 15.6434 9.37102C15.6434 9.35733 15.6206 9.3482 15.5909 9.3482C15.5613 9.3482 15.5179 9.33222 15.4928 9.31397C15.47 9.29571 15.4152 9.27974 15.3764 9.27974C15.3354 9.27974 15.3011 9.26833 15.3011 9.25692C15.3011 9.24323 15.2715 9.2341 15.2372 9.2341C15.2007 9.2341 15.1528 9.21813 15.1277 9.19987C15.1049 9.18162 15.0501 9.16564 15.009 9.16564C14.968 9.16564 14.9178 9.15652 14.8949 9.14511C14.8744 9.13142 14.8174 9.11544 14.7717 9.1086C14.7238 9.10175 14.685 9.08578 14.685 9.07665C14.685 9.06524 14.6417 9.05155 14.5892 9.0447C14.4363 9.02645 14.2423 8.98081 14.2286 8.96027C14.2218 8.95114 14.167 8.93745 14.1031 8.93061C13.9525 8.91463 13.7129 8.86215 13.6901 8.83933C13.681 8.8302 13.6239 8.82336 13.5646 8.82336C13.5053 8.82336 13.4505 8.81423 13.4414 8.80282C13.4345 8.79141 13.3706 8.77544 13.2976 8.76631C13.2269 8.75946 13.147 8.74349 13.1219 8.73208C13.0968 8.72067 13.0101 8.70698 12.9279 8.70013C12.7591 8.691 12.54 8.64537 12.5058 8.61342C12.4921 8.59973 12.4944 8.58604 12.5172 8.57235C12.5628 8.54268 13.3683 8.54496 13.4984 8.57463C13.5555 8.58832 13.6878 8.60657 13.7951 8.61798C14.2423 8.6659 14.3108 8.67731 14.3427 8.69785C14.361 8.70926 14.4386 8.72752 14.5139 8.73664C14.8082 8.77315 14.9155 8.79369 14.9406 8.81879C14.9566 8.83477 15.0113 8.84618 15.0638 8.84618C15.1186 8.84618 15.1688 8.8553 15.1756 8.86899C15.1825 8.8804 15.2235 8.89181 15.2646 8.89181C15.3057 8.89181 15.3582 8.90779 15.3833 8.92604C15.4061 8.9443 15.4586 8.96027 15.4997 8.96027C15.5385 8.96027 15.5795 8.9694 15.5864 8.98309C15.5932 8.9945 15.6229 9.00591 15.6525 9.00591C15.6799 9.00591 15.7233 9.02188 15.7484 9.04014C15.7712 9.05839 15.81 9.07437 15.8305 9.07437C15.8511 9.07437 15.9172 9.09947 15.9766 9.13142C16.0359 9.16336 16.0884 9.18846 16.0907 9.18846C16.1135 9.18846 16.0975 7.91743 16.077 7.8969C16.0633 7.88321 16.045 7.79877 16.0382 7.7075C16.0313 7.6185 16.0154 7.53864 16.0062 7.53179C15.9948 7.52494 15.9857 7.47246 15.9857 7.41313C15.9857 7.3538 15.9697 7.28534 15.9515 7.26252C15.9332 7.23742 15.9172 7.17809 15.9172 7.13245C15.9172 7.08453 15.9081 7.0389 15.8944 7.03205C15.883 7.0252 15.8716 6.98185 15.8716 6.93849C15.8716 6.89513 15.8625 6.86091 15.8488 6.86091C15.8374 6.86091 15.8214 6.8244 15.8123 6.78104C15.8054 6.73768 15.7895 6.69433 15.7781 6.68748C15.7666 6.68063 15.7575 6.65097 15.7575 6.61902C15.7575 6.58708 15.7415 6.546 15.7233 6.52775C15.705 6.50721 15.6891 6.47298 15.6891 6.45016C15.6891 6.42734 15.6799 6.39996 15.6662 6.39311C15.6548 6.38627 15.6434 6.36345 15.6434 6.34519C15.6434 6.32694 15.6183 6.27217 15.5864 6.22197C15.5544 6.17177 15.5293 6.117 15.5293 6.09646C15.5293 6.07821 15.5202 6.06223 15.5065 6.06223C15.4951 6.06223 15.4791 6.03713 15.47 6.00519C15.4631 5.97324 15.4472 5.94814 15.4358 5.94814C15.4244 5.94814 15.4152 5.93217 15.4152 5.91163C15.4152 5.89337 15.4015 5.86143 15.3878 5.84545C15.3148 5.76558 15.3011 5.74277 15.3011 5.70854C15.3011 5.69028 15.292 5.67431 15.2829 5.67431C15.2715 5.67431 15.2235 5.61498 15.1733 5.54424C15.1254 5.4735 15.0684 5.3982 15.0501 5.37994C15.0296 5.3594 14.9839 5.30236 14.9474 5.25444C14.8698 5.14947 14.256 4.53335 14.2286 4.53335C14.2172 4.53335 14.1647 4.49227 14.11 4.44207C14.0575 4.39415 13.9776 4.33482 13.9388 4.312C13.8977 4.28918 13.8635 4.26408 13.8635 4.25495C13.8635 4.24355 13.8521 4.2367 13.8361 4.2367C13.8224 4.2367 13.7791 4.21388 13.7403 4.18422C13.7015 4.15683 13.6285 4.11348 13.5783 4.08837C13.5281 4.06327 13.4824 4.03817 13.4756 4.03133C13.4505 4.00623 13.309 3.94005 13.2793 3.94005C13.2611 3.94005 13.2474 3.92864 13.2474 3.91723C13.2474 3.90354 13.2291 3.89441 13.204 3.89441C13.1812 3.89441 13.131 3.87844 13.0968 3.86018C13.0603 3.84193 13.0124 3.82595 12.9918 3.82595C12.969 3.82595 12.9508 3.81454 12.9508 3.80313C12.9508 3.78944 12.9165 3.78032 12.8777 3.78032C12.8367 3.77803 12.7773 3.76434 12.7454 3.74609C12.7134 3.72783 12.6564 3.71414 12.6153 3.71186C12.5765 3.71186 12.5354 3.70045 12.5286 3.68904C12.5218 3.67535 12.4647 3.66622 12.4054 3.66622C12.3438 3.66622 12.2571 3.65025 12.2137 3.63199C12.1475 3.60461 12.0311 3.59776 11.6683 3.60004C11.4127 3.60233 11.164 3.61374 11.1138 3.62514ZM11.7527 4.18422C11.9239 4.20703 12.0152 4.27777 12.0152 4.38959C12.0152 4.51509 11.9467 4.54019 11.6501 4.52878C11.5017 4.52194 11.3876 4.50825 11.3717 4.49227C11.3557 4.4763 11.3146 4.46489 11.2758 4.46489C11.1891 4.46489 11.1252 4.40556 11.1252 4.32798C11.1252 4.26636 11.1526 4.22985 11.2484 4.17509C11.2986 4.14542 11.488 4.14999 11.7527 4.18422ZM12.8686 4.33939C12.9028 4.35764 12.9576 4.37361 12.9873 4.37361C13.0169 4.37361 13.042 4.38274 13.042 4.39415C13.042 4.40556 13.0785 4.42153 13.1219 4.42838C13.1653 4.43751 13.2018 4.45348 13.2018 4.46489C13.2018 4.47858 13.2132 4.48771 13.2291 4.48771C13.2793 4.48771 13.3387 4.56301 13.3387 4.63147C13.3387 4.72731 13.2588 4.80718 13.1653 4.80718C13.1242 4.80718 13.0831 4.79577 13.0763 4.78436C13.0694 4.77067 13.0329 4.76154 12.9987 4.76154C12.9644 4.76154 12.9165 4.74557 12.8914 4.72731C12.8686 4.70906 12.8275 4.69308 12.8024 4.69308C12.7271 4.69308 12.5035 4.57442 12.4784 4.52194C12.4533 4.46489 12.4784 4.3759 12.5332 4.33254C12.5856 4.29375 12.7887 4.29831 12.8686 4.33939ZM13.8977 4.80718C13.948 4.83 14.0096 4.86879 14.0369 4.89389C14.062 4.91899 14.1031 4.94409 14.1282 4.95322C14.1967 4.97376 14.3655 5.15175 14.3655 5.20195C14.3655 5.22477 14.3473 5.27497 14.3268 5.31148C14.2948 5.36625 14.272 5.37766 14.2035 5.37766C14.1168 5.37766 13.9776 5.32061 13.9776 5.2841C13.9776 5.27269 13.9616 5.26356 13.9434 5.26356C13.9229 5.26356 13.8795 5.23846 13.8453 5.20651C13.811 5.17457 13.7722 5.14947 13.7563 5.14947C13.7403 5.14947 13.681 5.10155 13.6239 5.0445C13.4984 4.91443 13.4916 4.84825 13.5965 4.78436C13.6787 4.73416 13.7449 4.73872 13.8977 4.80718ZM12.2479 5.60813C12.2685 5.61954 12.3209 5.62867 12.362 5.62867C12.4031 5.62867 12.4579 5.64464 12.4807 5.6629C12.5058 5.68115 12.5491 5.69713 12.5788 5.69713C12.6085 5.69713 12.6313 5.70625 12.6313 5.71995C12.6313 5.73136 12.6473 5.74277 12.6655 5.74277C12.7499 5.74277 13.042 6.00747 13.042 6.08277C13.042 6.09646 13.0512 6.10787 13.0626 6.10787C13.074 6.10787 13.09 6.13754 13.0991 6.17633C13.1082 6.21284 13.1242 6.24935 13.1356 6.2562C13.163 6.27445 13.163 6.71714 13.1333 6.7354C13.1219 6.74225 13.1105 6.78332 13.1105 6.8244C13.1105 6.86547 13.0945 6.91795 13.0763 6.94305C13.058 6.96587 13.042 7.0001 13.042 7.01836C13.042 7.06628 12.9667 7.22601 12.9462 7.22601C12.9371 7.22601 12.9279 7.24199 12.9279 7.26252C12.9279 7.28306 12.9028 7.32414 12.8709 7.3538C12.8389 7.38347 12.8138 7.41541 12.8138 7.42682C12.8138 7.43823 12.775 7.47702 12.7294 7.51353C12.6815 7.54776 12.6404 7.58656 12.6358 7.59568C12.6313 7.60481 12.6107 7.61394 12.5879 7.61394C12.5674 7.61394 12.5377 7.62535 12.5218 7.64132C12.4556 7.7075 12.3164 7.72803 11.9421 7.72803C11.7117 7.72803 11.5565 7.71891 11.5474 7.70522C11.5405 7.69152 11.4858 7.6824 11.4287 7.6824C11.3717 7.6824 11.2941 7.66871 11.2553 7.65045C11.2142 7.63219 11.1572 7.61394 11.1252 7.60938C11.0545 7.60025 11.0385 7.51125 11.0887 7.41085C11.1092 7.37434 11.1252 7.30132 11.1252 7.25111C11.1252 7.20091 11.1366 7.15299 11.148 7.14615C11.1617 7.1393 11.1709 7.08453 11.1709 7.0252C11.1709 6.96587 11.1868 6.89742 11.2051 6.8746C11.2233 6.8495 11.2393 6.80158 11.2393 6.76507C11.2393 6.70802 11.2302 6.70117 11.1709 6.70117C11.0796 6.70117 10.9427 6.58023 10.9427 6.50036C10.9427 6.41593 11.0157 6.27445 11.075 6.24251C11.1161 6.21969 11.1435 6.21969 11.2028 6.24022C11.3306 6.28814 11.3534 6.27902 11.3534 6.17861C11.3534 6.12841 11.3648 6.08049 11.3762 6.07364C11.3899 6.0668 11.399 6.0166 11.399 5.96411C11.4013 5.91163 11.415 5.84317 11.4333 5.81122C11.4515 5.77928 11.4652 5.71538 11.4675 5.66974C11.4675 5.61041 11.4789 5.58303 11.5086 5.57847C11.5793 5.56249 12.2091 5.58759 12.2479 5.60813ZM8.51242 8.6408C8.51927 8.65221 8.59001 8.66362 8.66759 8.66362C8.74518 8.66362 8.85015 8.67503 8.90035 8.68872C8.99619 8.71611 9.17874 8.74349 9.45257 8.77544C9.54385 8.78456 9.63056 8.80282 9.64653 8.81651C9.66251 8.8302 9.73781 8.84618 9.81311 8.85302C10.071 8.87584 10.2627 8.91007 10.2878 8.93517C10.3014 8.94886 10.3676 8.96027 10.4315 8.96027C10.4977 8.96027 10.557 8.9694 10.5639 8.98081C10.5707 8.99222 10.6346 9.00591 10.7076 9.01047C10.7784 9.01732 10.8423 9.03329 10.8468 9.04698C10.8514 9.06296 10.9016 9.07437 10.9655 9.07437C11.0271 9.07437 11.0841 9.08349 11.091 9.09719C11.0978 9.1086 11.1366 9.12001 11.1754 9.12001C11.2119 9.12001 11.2758 9.1337 11.3146 9.15195C11.3557 9.17021 11.4401 9.19075 11.5017 9.19759C11.6729 9.21356 11.86 9.25236 11.8851 9.27746C11.933 9.32538 11.7778 9.3482 11.415 9.34592C11.2119 9.34592 10.9837 9.33451 10.9084 9.32081C10.8331 9.3094 10.6734 9.29115 10.5547 9.27974C10.2923 9.25692 10.0573 9.21813 9.99567 9.19075C9.97057 9.17705 9.91352 9.16336 9.87016 9.15652C9.71956 9.13598 9.59177 9.10175 9.56667 9.07665C9.55298 9.06296 9.50277 9.05155 9.45714 9.05155C9.40921 9.05155 9.36586 9.04242 9.35901 9.03101C9.35217 9.0196 9.29968 9.00363 9.24264 8.99678C9.18787 8.98765 9.13539 8.97168 9.12854 8.95799C9.11941 8.94658 9.08518 8.93745 9.05095 8.93745C9.01444 8.93745 8.95511 8.92148 8.92088 8.90322C8.88437 8.88497 8.83645 8.86899 8.81592 8.86899C8.79538 8.86899 8.77028 8.85758 8.76343 8.84618C8.75659 8.83248 8.72464 8.82336 8.69726 8.82336C8.66759 8.82336 8.61283 8.80738 8.5786 8.78913C8.54209 8.77087 8.49645 8.7549 8.47591 8.7549C8.42799 8.7549 8.35497 8.67275 8.37551 8.64308C8.39376 8.61114 8.49417 8.61114 8.51242 8.6408Z" fill="#FAF9F5"/>
  <path d="M11.9125 5.97548C11.908 5.99145 11.8989 6.05078 11.8943 6.10783C11.8897 6.16488 11.8715 6.24247 11.8555 6.28126C11.8076 6.39079 11.835 6.4273 11.965 6.4273C12.1225 6.4273 12.175 6.4775 12.175 6.62583C12.175 6.79013 12.1385 6.81523 11.9057 6.81523H11.7186V6.89281C11.7186 6.93617 11.7095 6.97953 11.6958 6.98637C11.6844 6.99322 11.6729 7.03201 11.6729 7.0708C11.6729 7.10731 11.6547 7.16892 11.6342 7.20543C11.6136 7.23966 11.6022 7.27846 11.6113 7.28758C11.6205 7.29671 11.7642 7.30356 11.9308 7.30356C12.1909 7.30584 12.2411 7.29899 12.2754 7.26476C12.2982 7.24423 12.3279 7.22597 12.3415 7.22597C12.3895 7.22597 12.5834 6.99322 12.6519 6.85174C12.7112 6.7308 12.7226 6.68288 12.7226 6.53455C12.7226 6.43871 12.7135 6.35884 12.7021 6.35884C12.6907 6.35884 12.6724 6.33602 12.6633 6.30864C12.6473 6.25159 12.5332 6.13065 12.499 6.13065C12.4876 6.13065 12.4648 6.11468 12.4488 6.09642C12.4328 6.07817 12.3963 6.06219 12.3667 6.06219C12.337 6.06219 12.3119 6.05078 12.3119 6.03937C12.3119 6.02568 12.2845 6.01656 12.2503 6.01656C12.2138 6.01656 12.1453 6.00058 12.0951 5.98233C11.981 5.94125 11.9262 5.93897 11.9125 5.97548Z" fill="#FAF9F5"/>
  <path d="M16.602 4.90743C16.602 4.92797 16.6134 4.94394 16.6248 4.94394C16.6385 4.94394 16.6476 4.95763 16.6476 4.97589C16.6476 4.99414 16.6567 5.0124 16.6659 5.01696C16.675 5.01925 16.7434 5.12193 16.8187 5.24059C16.894 5.35925 16.9625 5.45966 16.9716 5.46422C16.9808 5.46878 16.9899 5.48932 16.9899 5.51214C16.9899 5.53268 17.0013 5.56234 17.0127 5.57375C17.0447 5.6057 17.12 5.73577 17.1565 5.81564C17.1702 5.85215 17.1907 5.87953 17.1998 5.87953C17.209 5.87953 17.2181 5.90007 17.2181 5.92289C17.2181 5.94799 17.2272 5.97309 17.2386 5.98221C17.266 5.99819 17.3322 6.12826 17.3322 6.16477C17.3322 6.18074 17.3482 6.199 17.3664 6.20813C17.3847 6.21497 17.4006 6.24007 17.4006 6.26517C17.4006 6.29027 17.412 6.31766 17.4235 6.3245C17.4371 6.33135 17.4463 6.35645 17.4463 6.38155C17.4463 6.40437 17.4622 6.42719 17.4805 6.43632C17.4988 6.44316 17.5147 6.4637 17.5147 6.48424C17.5147 6.51618 17.5353 6.56411 17.5878 6.65538C17.5969 6.67364 17.6129 6.70558 17.6197 6.72384C17.6562 6.8174 17.6813 6.87445 17.6996 6.90639C17.711 6.92465 17.7269 6.95659 17.7338 6.97485C17.7406 6.9931 17.7566 7.02733 17.768 7.04787C17.7794 7.07069 17.7886 7.1072 17.7886 7.1323C17.7886 7.15512 17.8045 7.18022 17.8228 7.18935C17.841 7.1962 17.857 7.21673 17.857 7.23727C17.857 7.2715 17.8639 7.29204 17.9346 7.42439C17.9551 7.46318 17.9711 7.51795 17.9711 7.54305C17.9711 7.57043 17.9825 7.59097 17.9939 7.59097C18.0076 7.59097 18.0168 7.61607 18.0168 7.64573C18.0168 7.6754 18.0327 7.71191 18.051 7.72788C18.0692 7.74386 18.0852 7.7758 18.0852 7.79862C18.0852 7.84198 18.0898 7.85795 18.1605 7.99715C18.1811 8.04051 18.1993 8.09299 18.1993 8.11809C18.1993 8.14091 18.2107 8.16145 18.2221 8.16145C18.2358 8.16145 18.2449 8.18427 18.2449 8.21393C18.2449 8.2436 18.2609 8.28695 18.2792 8.31205C18.2974 8.33487 18.3134 8.38279 18.3134 8.41702C18.3134 8.45125 18.3248 8.48548 18.3362 8.49233C18.3499 8.49917 18.359 8.53112 18.359 8.5585C18.359 8.58817 18.375 8.62468 18.3933 8.64065C18.4115 8.65662 18.4275 8.6977 18.4275 8.73421C18.4275 8.76844 18.4389 8.80495 18.4503 8.81179C18.464 8.81864 18.4731 8.85515 18.4731 8.88938C18.4731 8.92589 18.4891 8.96697 18.5074 8.98294C18.5256 8.99891 18.5416 9.03999 18.5416 9.0765C18.5416 9.11301 18.553 9.14267 18.5644 9.14267C18.5781 9.14267 18.5872 9.1769 18.5872 9.22026C18.5872 9.26133 18.6032 9.30925 18.6215 9.32523C18.6397 9.3412 18.6557 9.38227 18.6557 9.41879C18.6557 9.4553 18.6671 9.48496 18.6785 9.48496C18.6922 9.48496 18.7013 9.51463 18.7013 9.54885C18.7013 9.61503 18.642 9.69033 18.5918 9.69033C18.5758 9.69033 18.5462 9.69946 18.5233 9.71087C18.5028 9.72228 18.4435 9.74966 18.3933 9.7702C18.3431 9.79302 18.2837 9.8204 18.2632 9.82953C18.2404 9.84094 18.2016 9.85007 18.1765 9.85007C18.1514 9.85007 18.1308 9.8592 18.1308 9.86832C18.1308 9.87973 18.0875 9.90483 18.035 9.92765C17.9186 9.97329 17.7931 10.0303 17.7384 10.0577C17.7155 10.0691 17.6813 10.0783 17.6631 10.0783C17.6448 10.0783 17.6288 10.0874 17.6288 10.0965C17.6288 10.1148 17.4737 10.1924 17.4394 10.1924C17.3687 10.1924 17.2957 10.3818 17.3573 10.4023C17.3869 10.4114 17.428 10.594 17.428 10.7172C17.4303 10.8199 17.3869 10.9773 17.3573 10.9865C17.3436 10.991 17.3322 11.007 17.3322 11.0207C17.3322 11.0549 17.2158 11.1736 17.1816 11.1736C17.1656 11.1736 17.1496 11.1804 17.1451 11.1896C17.1337 11.2192 16.91 11.2877 16.8347 11.2877C16.7959 11.2877 16.7571 11.2968 16.7503 11.3105C16.7434 11.3219 16.7183 11.3333 16.6978 11.3333C16.6773 11.3333 16.6293 11.3493 16.5928 11.3675C16.5586 11.3858 16.5175 11.4018 16.5038 11.4018C16.4879 11.4018 16.4263 11.4269 16.3624 11.4565C16.3007 11.4862 16.2118 11.5273 16.1661 11.5478C16.0497 11.598 16.0155 11.6437 16.0497 11.7007C16.0657 11.7235 16.0771 11.7737 16.0771 11.8102C16.0771 11.849 16.0885 11.8855 16.0999 11.8924C16.1136 11.8992 16.1228 11.9266 16.1228 11.9517C16.1228 11.9791 16.1296 11.9951 16.141 11.9905C16.1775 11.9723 16.2962 11.9198 16.351 11.8969C16.4399 11.8627 16.5632 11.808 16.6065 11.7874C16.6293 11.776 16.6636 11.7669 16.6841 11.7669C16.7024 11.7669 16.7343 11.7509 16.7526 11.7327C16.7731 11.7144 16.8073 11.6984 16.8302 11.6984C16.853 11.6984 16.8804 11.6893 16.8872 11.6756C16.894 11.6619 16.926 11.6528 16.9579 11.6528C16.9876 11.6528 17.0127 11.6437 17.0127 11.6345C17.0127 11.6117 17.1747 11.5387 17.2226 11.5387C17.2432 11.5387 17.2706 11.5227 17.2865 11.5045C17.3025 11.4862 17.339 11.4702 17.3687 11.4702C17.3984 11.4702 17.4235 11.4588 17.4235 11.4474C17.4235 11.4337 17.4463 11.4246 17.4759 11.4246C17.5033 11.4246 17.5467 11.4086 17.5695 11.3904C17.5946 11.3721 17.6334 11.3561 17.6562 11.3561C17.679 11.3561 17.6973 11.3447 17.6973 11.3333C17.6973 11.3196 17.7178 11.3105 17.7406 11.3105C17.7657 11.3105 17.8182 11.2922 17.8616 11.2717C18.0008 11.2032 18.0168 11.1964 18.0533 11.1964C18.0715 11.1964 18.1035 11.1804 18.1217 11.1622C18.1423 11.1439 18.1811 11.1279 18.213 11.1279C18.2427 11.1279 18.2678 11.1165 18.2678 11.1051C18.2678 11.0914 18.2883 11.0823 18.3111 11.0823C18.3362 11.0823 18.3887 11.064 18.4321 11.0435C18.5713 10.9728 18.5872 10.9682 18.6306 10.9682C18.6534 10.9682 18.6785 10.9522 18.6876 10.934C18.6945 10.9157 18.7241 10.8998 18.7561 10.8998C18.788 10.8998 18.82 10.8883 18.8268 10.8769C18.8337 10.8632 18.8656 10.8541 18.893 10.8541C18.9227 10.8541 18.9592 10.8381 18.9752 10.8199C19.0391 10.7423 19.1395 10.8039 19.1691 10.9385C19.176 10.9796 19.1942 11.0184 19.2056 11.0253C19.217 11.0344 19.2262 11.0755 19.2262 11.1188C19.2262 11.1622 19.2353 11.1964 19.249 11.1964C19.2604 11.1964 19.2764 11.2329 19.2855 11.2763C19.2923 11.3196 19.3083 11.363 19.3197 11.3698C19.3311 11.3767 19.3403 11.4177 19.3403 11.4611C19.3403 11.5045 19.3494 11.5387 19.3631 11.5387C19.3745 11.5387 19.3905 11.5775 19.3973 11.6231C19.4042 11.671 19.4201 11.7281 19.4338 11.7486C19.4452 11.7714 19.4544 11.8239 19.4544 11.8673C19.4544 11.9106 19.4635 11.954 19.4772 11.9608C19.4886 11.9677 19.5046 12.0247 19.5137 12.0886C19.5228 12.1502 19.5388 12.2073 19.5479 12.2141C19.5593 12.221 19.5685 12.2643 19.5685 12.3123C19.5685 12.3602 19.5844 12.4309 19.6027 12.4651C19.6209 12.5017 19.6369 12.5633 19.6369 12.6043C19.6369 12.6431 19.6483 12.6842 19.6597 12.6911C19.6734 12.6979 19.6826 12.7595 19.6826 12.8257C19.6826 12.8896 19.694 12.9558 19.7077 12.9695C19.7328 12.9946 19.767 13.1771 19.7898 13.4099C19.7966 13.4783 19.8126 13.5491 19.824 13.565C19.8491 13.5947 19.8834 13.8115 19.9039 14.083C19.9085 14.1697 19.9244 14.2542 19.9358 14.2701C19.9587 14.2952 19.9838 14.5075 20.0248 14.9958C20.0363 15.1213 20.0545 15.2947 20.0682 15.3837C20.0796 15.4704 20.091 15.7306 20.091 15.9588C20.0933 16.3193 20.0979 16.3741 20.1275 16.3627C20.1458 16.3535 20.1618 16.3353 20.1618 16.3193C20.1618 16.2942 20.2074 16.187 20.2553 16.098C20.2667 16.0751 20.2759 16.0295 20.2759 15.9953C20.2759 15.9588 20.2918 15.8903 20.3101 15.8401C20.3283 15.7899 20.342 15.71 20.3443 15.6644C20.3443 15.6188 20.3534 15.5731 20.3671 15.5663C20.3808 15.5594 20.3899 15.4522 20.3899 15.3312C20.3922 15.2103 20.4059 14.9821 20.4219 14.8247C20.4561 14.5075 20.4516 13.8959 20.415 13.581C20.4014 13.4669 20.3899 13.2478 20.3899 13.0927C20.3899 12.9352 20.3808 12.7778 20.3694 12.739C20.3466 12.6682 20.3055 12.2415 20.285 11.8924C20.2781 11.792 20.2644 11.6893 20.253 11.6642C20.2325 11.614 20.1891 11.3379 20.1686 11.1165C20.1618 11.0412 20.1481 10.9682 20.1389 10.9568C20.1138 10.9271 20.0705 10.7035 20.0545 10.5324L20.0431 10.4046L20.2462 10.3042C20.3557 10.2494 20.4516 10.1969 20.4538 10.1855C20.4584 10.1764 20.4835 10.1695 20.5086 10.1695C20.5428 10.1695 20.5497 10.1604 20.536 10.1285C20.5269 10.1079 20.5155 10.0509 20.5086 10.003C20.504 9.95732 20.4904 9.91168 20.4789 9.90483C20.4675 9.89799 20.4584 9.87745 20.4584 9.85691C20.4584 9.83866 20.4424 9.78617 20.4219 9.74054C20.4014 9.69262 20.374 9.631 20.3626 9.59906C20.2736 9.37771 20.2005 9.22482 20.18 9.21569C20.1686 9.21113 20.1618 9.19744 20.1618 9.18375C20.1618 9.17006 20.1367 9.12442 20.1024 9.08106C20.0568 9.01945 20.0294 9.00576 19.9587 9.00576C19.913 9.00576 19.8628 9.01717 19.8491 9.03086C19.8058 9.07422 19.6734 9.04683 19.6483 8.9875C19.6369 8.96012 19.6187 8.9373 19.6095 8.9373C19.5981 8.9373 19.5913 8.9122 19.5913 8.88025C19.5913 8.84831 19.5821 8.8232 19.573 8.8232C19.5525 8.8232 19.4772 8.66347 19.4772 8.6224C19.4772 8.60642 19.4681 8.59501 19.4544 8.59501C19.443 8.59501 19.427 8.56991 19.4179 8.53796C19.411 8.50602 19.395 8.48092 19.3859 8.48092C19.3768 8.48092 19.3631 8.46266 19.3562 8.43984C19.3494 8.4193 19.3129 8.34857 19.2741 8.28695C19.2353 8.22306 19.1897 8.14091 19.1691 8.09984C19.1486 8.05876 19.1166 8.0154 19.0984 7.99943C19.0801 7.98574 19.0664 7.9652 19.0664 7.95379C19.0664 7.92641 18.9478 7.74158 18.925 7.73245C18.9135 7.72788 18.9067 7.71419 18.9067 7.7005C18.9067 7.68681 18.8816 7.64117 18.8497 7.6001C18.8177 7.55902 18.7926 7.51795 18.7926 7.50654C18.7926 7.49741 18.7698 7.4609 18.7424 7.43123C18.7127 7.39929 18.6694 7.33539 18.6466 7.28747C18.6215 7.24183 18.5941 7.20304 18.5827 7.20304C18.5735 7.20304 18.5644 7.1825 18.5644 7.1574C18.5644 7.1323 18.5553 7.11176 18.5439 7.11176C18.5325 7.11176 18.4982 7.07297 18.4709 7.02505C18.4412 6.97941 18.3841 6.89955 18.3431 6.84706C18.302 6.79458 18.2678 6.74666 18.2678 6.73753C18.2678 6.7284 18.2427 6.69417 18.213 6.66223C18.1833 6.63028 18.1445 6.5778 18.1263 6.54585C18.1103 6.5139 18.0624 6.45229 18.0236 6.40893C17.9825 6.36558 17.9483 6.32222 17.9483 6.31081C17.9483 6.30168 17.9072 6.2492 17.8547 6.19443C17.8023 6.14195 17.7224 6.04383 17.6745 5.97993C17.6265 5.91604 17.4988 5.77228 17.3915 5.66047C17.2843 5.55093 17.1953 5.45053 17.1953 5.4414C17.1953 5.4163 16.8393 5.0626 16.7115 4.95992C16.6339 4.8983 16.602 4.88233 16.602 4.90743Z" fill="#FAF9F5"/>
  <path d="M6.78519 9.45753C6.76465 9.46209 6.73955 9.48263 6.73499 9.50317C6.72814 9.52371 6.69163 9.57847 6.65284 9.62183C6.61633 9.66518 6.58438 9.71311 6.58438 9.7268C6.58438 9.74049 6.57069 9.76559 6.55243 9.77928C6.53418 9.79525 6.50223 9.84089 6.48169 9.88425C6.46116 9.92761 6.43605 9.96412 6.42464 9.96412C6.41095 9.96412 6.40183 9.97781 6.40183 9.99606C6.40183 10.0349 6.3288 10.1786 6.30598 10.1877C6.29458 10.1923 6.28773 10.2151 6.28773 10.2379C6.28773 10.2608 6.2786 10.2881 6.26491 10.295C6.2535 10.3018 6.22612 10.3475 6.20558 10.3931C6.128 10.5688 6.09377 10.6373 6.07779 10.6441C6.06638 10.6487 6.05954 10.6715 6.05954 10.6943C6.05954 10.7171 6.05041 10.7445 6.03672 10.7514C6.02531 10.7582 6.0139 10.7833 6.0139 10.8061C6.0139 10.829 5.99793 10.8609 5.97967 10.8769C5.96141 10.8929 5.94544 10.9248 5.94544 10.9476C5.94544 10.991 5.94088 11.007 5.87014 11.1462C5.8496 11.1895 5.83135 11.242 5.83135 11.2648C5.83135 11.2876 5.81537 11.3355 5.79712 11.3698C5.77886 11.4063 5.76289 11.4542 5.76289 11.4747C5.76289 11.4953 5.75376 11.5204 5.74007 11.5272C5.72866 11.5341 5.71725 11.5752 5.71725 11.6185C5.71725 11.6619 5.70812 11.7029 5.69443 11.7098C5.68302 11.7166 5.66705 11.7737 5.65792 11.8376C5.64879 11.8992 5.63282 11.9562 5.62369 11.9631C5.61228 11.9699 5.60315 12.0133 5.60315 12.0612C5.60315 12.1091 5.58718 12.1936 5.56892 12.246C5.55067 12.2985 5.5347 12.4012 5.5347 12.4719C5.5347 12.5427 5.52329 12.6134 5.5096 12.6271C5.46167 12.675 5.51872 13.5901 5.57805 13.7019C5.59174 13.7293 5.60315 13.7909 5.60315 13.8411C5.60315 13.8913 5.61456 13.9392 5.62597 13.9461C5.63966 13.9529 5.64879 13.978 5.64879 13.9985C5.64879 14.0191 5.66477 14.067 5.68302 14.1035C5.70128 14.1377 5.71725 14.1879 5.71725 14.2108C5.71725 14.2359 5.72638 14.2724 5.74007 14.2952C5.75148 14.3157 5.77886 14.3751 5.7994 14.4253C5.81994 14.4755 5.86101 14.5667 5.89068 14.6261C5.92034 14.6877 5.94544 14.7516 5.94544 14.7698C5.94544 14.7881 5.95229 14.8018 5.9637 14.8018C5.97282 14.8018 6.00021 14.8406 6.02531 14.8862C6.05041 14.9341 6.07551 14.9775 6.08236 14.9843C6.0892 14.9912 6.1394 15.0665 6.19417 15.1532C6.24894 15.2422 6.31739 15.338 6.34706 15.37C6.37672 15.4019 6.40183 15.4384 6.40183 15.4498C6.40183 15.4864 6.96774 16.0431 7.0864 16.123C7.15029 16.1664 7.2005 16.2097 7.2005 16.2211C7.2005 16.2303 7.21191 16.2394 7.22788 16.2394C7.24157 16.2394 7.28721 16.2645 7.32828 16.2964C7.36936 16.3284 7.415 16.3535 7.42869 16.3535C7.44238 16.3535 7.48117 16.3786 7.5154 16.4105C7.54963 16.4425 7.59527 16.4676 7.61581 16.4676C7.63863 16.4676 7.65688 16.4767 7.65688 16.4904C7.65688 16.5018 7.67742 16.5132 7.70252 16.5132C7.72762 16.5132 7.755 16.5292 7.76185 16.5475C7.77098 16.5657 7.80064 16.5817 7.83031 16.5817C7.85997 16.5817 7.88507 16.5908 7.88507 16.6045C7.88507 16.6159 7.90561 16.6273 7.92843 16.6273C7.95353 16.6273 7.98776 16.6433 8.0083 16.6615C8.02655 16.6798 8.06763 16.6958 8.09957 16.6958C8.13152 16.6958 8.16118 16.7049 8.16803 16.7163C8.17488 16.7277 8.21823 16.7437 8.26159 16.7505C8.30495 16.7597 8.34146 16.7756 8.34146 16.7848C8.34146 16.8053 8.36884 16.8099 8.76361 16.8532C8.98496 16.8783 9.56685 16.8624 9.58738 16.8304C9.59423 16.819 9.65356 16.8099 9.71974 16.8099C9.78819 16.8099 9.87262 16.7939 9.90685 16.7756C9.94336 16.7574 10.005 16.7414 10.046 16.7414C10.0848 16.7414 10.1259 16.73 10.1328 16.7186C10.1396 16.7049 10.1807 16.6958 10.2195 16.6958C10.2606 16.6958 10.313 16.6798 10.3359 16.6615C10.361 16.6433 10.4043 16.6273 10.4317 16.6273C10.4614 16.6273 10.491 16.6159 10.4979 16.6045C10.5047 16.5908 10.5321 16.5817 10.5549 16.5817C10.5777 16.5817 10.6302 16.5634 10.6736 16.5429C10.8128 16.4721 10.8287 16.4676 10.8721 16.4676C10.8949 16.4676 10.9269 16.4516 10.9428 16.4334C10.9588 16.4151 10.9862 16.3991 11.0022 16.3991C11.0364 16.3991 11.0569 16.39 11.1893 16.3215C11.2623 16.2828 11.3308 16.285 11.3308 16.3261C11.3308 16.374 10.7763 16.9011 10.7261 16.9011C10.7169 16.9011 10.6896 16.9263 10.6645 16.9582C10.6393 16.9901 10.6051 17.0152 10.5869 17.0152C10.5686 17.0152 10.5549 17.0221 10.5549 17.0312C10.5549 17.054 10.4226 17.1293 10.3838 17.1293C10.3678 17.1293 10.3495 17.143 10.3427 17.159C10.3359 17.1773 10.2971 17.2092 10.2537 17.2297C10.2126 17.2526 10.1282 17.2982 10.0643 17.3347C10.0027 17.3712 9.9137 17.4191 9.87034 17.4397C9.82699 17.4625 9.78591 17.4876 9.77907 17.4944C9.77222 17.5013 9.73114 17.531 9.68779 17.5583C9.52577 17.6587 9.31584 17.9257 9.17436 18.2133C9.14926 18.2635 9.12187 18.3091 9.11274 18.3114C9.10134 18.3159 9.09449 18.3388 9.09449 18.3639C9.09449 18.4483 8.84576 18.7951 8.78415 18.7951C8.76589 18.7951 8.7522 18.802 8.7522 18.8111C8.7522 18.8476 8.60844 18.9092 8.52173 18.9092C8.44414 18.9092 8.43273 18.9024 8.43273 18.8568C8.43273 18.8294 8.41676 18.786 8.3985 18.7632C8.38025 18.7381 8.36428 18.6856 8.36428 18.6445C8.36428 18.6035 8.35515 18.5624 8.34146 18.5555C8.33005 18.5487 8.31864 18.5076 8.31864 18.4665C8.31864 18.4232 8.30266 18.3776 8.28441 18.3616C8.26615 18.3456 8.25018 18.3114 8.25018 18.2863C8.25018 18.2292 8.20911 18.0992 8.16803 18.0147C8.14978 17.9828 8.13608 17.9349 8.13608 17.9098C8.13608 17.8824 8.12696 17.855 8.11326 17.8481C8.10185 17.8413 8.09045 17.8139 8.09045 17.7888C8.09045 17.7637 8.06534 17.7089 8.0334 17.6679C8.00145 17.6268 7.97635 17.5857 7.97635 17.5766C7.97635 17.5561 7.81662 17.4032 7.79151 17.4032C7.7801 17.4032 7.68426 17.3187 7.57473 17.2138C7.36708 17.0175 7.30318 16.9582 7.11835 16.7848C7.05674 16.7277 6.96546 16.6364 6.91754 16.5794C6.86734 16.5246 6.78291 16.4311 6.72814 16.3717L6.63002 16.2645V16.463C6.63002 16.5931 6.63914 16.673 6.65968 16.6912C6.68022 16.714 6.68935 16.8738 6.69391 17.2914C6.70076 17.7728 6.69619 17.871 6.66653 17.9326C6.64599 17.9714 6.63002 18.0421 6.63002 18.09C6.63002 18.1379 6.62089 18.1836 6.6072 18.1904C6.59579 18.1973 6.58438 18.2338 6.58438 18.2703C6.58438 18.3068 6.56841 18.3502 6.55015 18.3707C6.53189 18.389 6.51592 18.4392 6.51592 18.4848C6.51592 18.5282 6.50679 18.5715 6.4931 18.5784C6.43605 18.6126 6.47485 18.7039 6.58894 18.8157C6.65512 18.8796 6.72129 18.9321 6.73499 18.9321C6.74868 18.9321 6.78747 18.9572 6.8217 18.9891C6.85593 19.0211 6.89472 19.0462 6.90613 19.0462C6.91982 19.0462 6.96318 19.069 7.00197 19.0964C7.04304 19.126 7.1115 19.1671 7.15486 19.1922C7.19822 19.215 7.23929 19.2424 7.24614 19.2492C7.25298 19.2584 7.29634 19.2835 7.34426 19.304C7.3899 19.3268 7.42869 19.3542 7.42869 19.3656C7.42869 19.3793 7.44466 19.3884 7.46292 19.3884C7.48345 19.3884 7.53822 19.4135 7.58842 19.4455C7.63863 19.4774 7.69339 19.5025 7.70936 19.5025C7.72534 19.5025 7.74816 19.5117 7.76185 19.5231C7.7801 19.539 7.9832 19.6554 8.09045 19.7102C8.17488 19.7513 8.29354 19.7992 8.31636 19.7992C8.33005 19.7992 8.34146 19.8083 8.34146 19.822C8.34146 19.8334 8.36656 19.8448 8.3985 19.8448C8.43045 19.8448 8.45555 19.854 8.45555 19.8654C8.45555 19.8768 8.49206 19.8927 8.53542 19.8996C8.57878 19.9087 8.61529 19.9247 8.61529 19.9361C8.61529 19.9498 8.64723 19.9589 8.68374 19.9589C8.72254 19.9589 8.7522 19.968 8.7522 19.9817C8.7522 19.9932 8.78871 20.0091 8.83207 20.0183C8.87543 20.0251 8.91878 20.0411 8.92563 20.0525C8.93247 20.0639 8.96214 20.073 8.98952 20.073C9.01919 20.073 9.07395 20.089 9.10818 20.1072C9.14469 20.1255 9.20174 20.1415 9.23825 20.1415C9.27248 20.1415 9.29986 20.1506 9.29986 20.1643C9.29986 20.1757 9.33865 20.1871 9.38658 20.1871C9.4345 20.1871 9.49383 20.2031 9.51893 20.2213C9.54175 20.2396 9.60564 20.2556 9.65812 20.2556C9.71061 20.2556 9.76081 20.2647 9.76766 20.2784C9.7745 20.2898 9.8384 20.3012 9.90685 20.3012C9.97759 20.3012 10.0552 20.3126 10.0826 20.3286C10.1328 20.356 10.6393 20.3948 10.9885 20.3993C11.2714 20.4016 11.9811 20.356 12.0176 20.3332C12.0359 20.3217 12.1158 20.3058 12.1979 20.2966C12.4238 20.2738 12.5972 20.2396 12.6497 20.2122C12.6748 20.1985 12.7387 20.1871 12.7889 20.1871C12.8391 20.1871 12.8848 20.178 12.8916 20.1666C12.9007 20.1552 12.9464 20.1392 12.9966 20.1301C13.0468 20.1209 13.0924 20.105 13.1015 20.0936C13.1084 20.0821 13.154 20.073 13.2042 20.073C13.2521 20.073 13.2932 20.0639 13.2932 20.0525C13.2932 20.0411 13.3343 20.0251 13.3845 20.016C13.4347 20.0068 13.4803 19.9909 13.4895 19.9795C13.4963 19.968 13.5305 19.9589 13.5693 19.9589C13.6058 19.9589 13.6355 19.9475 13.6355 19.9361C13.6355 19.9224 13.6538 19.9133 13.6766 19.9133C13.6971 19.9133 13.745 19.8973 13.7816 19.8791C13.8158 19.8608 13.866 19.8448 13.8888 19.8448C13.9139 19.8448 13.9322 19.8357 13.9322 19.8243C13.9322 19.8129 13.9618 19.7969 14.0006 19.7878C14.0371 19.7786 14.0736 19.7627 14.0805 19.7513C14.0896 19.7399 14.1147 19.7307 14.1398 19.7307C14.1649 19.7307 14.2014 19.7148 14.2197 19.6965C14.2402 19.6782 14.2744 19.6623 14.2995 19.6623C14.3224 19.6623 14.3429 19.6509 14.3429 19.6395C14.3429 19.6258 14.3589 19.6166 14.3771 19.6166C14.3954 19.6166 14.4296 19.6075 14.4524 19.5961C14.473 19.5847 14.5848 19.5299 14.6966 19.4752C14.8107 19.4204 14.9065 19.3702 14.9134 19.3633C14.9202 19.3542 14.9476 19.3428 14.9773 19.3337C15.0047 19.3245 15.0275 19.3063 15.0275 19.2949C15.0275 19.2835 15.0457 19.2743 15.0708 19.2743C15.0937 19.2743 15.1256 19.2584 15.1416 19.2401C15.1575 19.2219 15.1849 19.2059 15.2009 19.2059C15.2192 19.2059 15.2329 19.199 15.2329 19.1876C15.2329 19.1717 15.3013 19.1306 15.3766 19.1009C15.3971 19.0941 15.4154 19.0781 15.4154 19.0667C15.4154 19.0553 15.4291 19.0462 15.4474 19.0462C15.4656 19.0462 15.4839 19.0393 15.4884 19.0279C15.493 19.0188 15.5523 18.9754 15.6208 18.9321C15.6892 18.8887 15.7714 18.8294 15.8033 18.802C15.8353 18.7723 15.8718 18.7495 15.8878 18.7495C15.9037 18.7495 15.9174 18.7381 15.9174 18.7267C15.9174 18.713 15.9334 18.7039 15.9517 18.7039C15.9699 18.7039 15.9859 18.6947 15.9859 18.6833C15.9859 18.6719 16.0201 18.6423 16.0612 18.6149C16.1 18.5898 16.1547 18.551 16.1798 18.5282C16.2574 18.4574 16.3875 18.3525 16.4514 18.3068C16.5358 18.2452 16.9489 17.8322 16.9854 17.7728C17.0173 17.7135 17.0242 17.353 16.9899 17.2936C16.9671 17.2503 16.9238 17.0746 16.9078 16.9468C16.9009 16.9034 16.8872 16.8464 16.8758 16.8213C16.8462 16.7597 16.8051 16.5931 16.7914 16.479C16.7846 16.4288 16.7709 16.3832 16.7617 16.3763C16.7435 16.3649 16.6978 16.1938 16.6773 16.0568C16.6705 16.0135 16.6499 15.9564 16.6339 15.9313C16.6157 15.9062 16.602 15.8583 16.602 15.8241C16.602 15.7899 16.5929 15.7556 16.5792 15.7488C16.5678 15.7419 16.5564 15.6963 16.5564 15.6507C16.5564 15.605 16.5404 15.5457 16.5221 15.5229C16.5039 15.4978 16.4879 15.4498 16.4879 15.4156C16.4879 15.3814 16.4788 15.3449 16.4651 15.338C16.4537 15.3312 16.4423 15.2901 16.4423 15.249C16.4423 15.2057 16.4263 15.1418 16.408 15.1076C16.3898 15.0711 16.3738 15.0186 16.3738 14.9912C16.3738 14.9638 16.3647 14.9341 16.351 14.9273C16.3396 14.9204 16.3282 14.8839 16.3282 14.8497C16.3282 14.8132 16.3122 14.7539 16.2939 14.7196C16.2757 14.6831 16.2597 14.6261 16.2597 14.5918C16.2597 14.5576 16.2506 14.5234 16.2369 14.5165C16.2255 14.5097 16.2141 14.4663 16.2141 14.423C16.2141 14.3773 16.1981 14.3271 16.1798 14.3089C16.1616 14.2884 16.1456 14.245 16.1456 14.2085C16.1456 14.172 16.1365 14.1355 16.1228 14.1286C16.1114 14.1218 16.1 14.0761 16.1 14.0305C16.1 13.9849 16.084 13.9255 16.0658 13.9027C16.0475 13.8776 16.0315 13.8297 16.0315 13.7955C16.0315 13.7612 16.0224 13.7247 16.0087 13.7179C15.9973 13.711 15.9859 13.6768 15.9859 13.6426C15.9836 13.6083 15.9699 13.5559 15.9517 13.5239C15.9334 13.492 15.9197 13.4395 15.9174 13.4053C15.9174 13.371 15.9083 13.3368 15.8946 13.3299C15.8809 13.3231 15.8718 13.282 15.8718 13.2432C15.8718 13.2022 15.8558 13.1497 15.8376 13.1269C15.8193 13.1018 15.8033 13.0538 15.8033 13.0196C15.8033 12.9854 15.7942 12.9489 15.7805 12.942C15.7691 12.9352 15.7577 12.8941 15.7577 12.8553C15.7577 12.8142 15.7417 12.7617 15.7235 12.7389C15.7052 12.7138 15.6892 12.6659 15.6892 12.6317C15.6892 12.5975 15.6801 12.5609 15.6664 12.5541C15.655 12.5472 15.6436 12.5062 15.6436 12.4674C15.6436 12.4263 15.6276 12.3738 15.6094 12.351C15.5911 12.3259 15.5751 12.278 15.5751 12.2438C15.5751 12.2095 15.566 12.173 15.5523 12.1662C15.5409 12.1593 15.5295 12.116 15.5295 12.0726C15.5295 12.027 15.5135 11.9768 15.4953 11.9585C15.477 11.938 15.461 11.8878 15.461 11.8467C15.461 11.8033 15.4519 11.7623 15.4382 11.7554C15.4268 11.7486 15.4154 11.7075 15.4154 11.6687C15.4154 11.6276 15.3994 11.5752 15.3812 11.5523C15.3629 11.5272 15.3469 11.4793 15.3469 11.4451C15.3469 11.4109 15.3378 11.3743 15.3241 11.3675C15.3127 11.3607 15.3013 11.3127 15.3013 11.2648C15.3013 11.2169 15.2899 11.1735 15.2739 11.169C15.258 11.1621 15.2397 11.1051 15.2329 11.0366C15.226 10.9613 15.2078 10.9088 15.1872 10.8997C15.169 10.8906 15.1302 10.8723 15.1028 10.8586C15.0731 10.8427 15.0275 10.8312 14.9955 10.8312C14.9659 10.8312 14.9294 10.8153 14.9134 10.797C14.8974 10.7788 14.8518 10.7628 14.8084 10.7628C14.7673 10.7628 14.7263 10.7514 14.7194 10.74C14.7126 10.7263 14.6715 10.7171 14.6304 10.7171C14.5894 10.7171 14.5369 10.7012 14.5118 10.6829C14.4889 10.6647 14.4365 10.6487 14.3954 10.6487C14.3566 10.6487 14.3155 10.6373 14.3087 10.6259C14.3018 10.6122 14.2608 10.6031 14.222 10.6031C14.1809 10.6008 14.1238 10.5871 14.0919 10.5688C14.0599 10.5506 13.9961 10.5369 13.9504 10.5346C13.9048 10.5346 13.8591 10.5232 13.8523 10.5118C13.8454 10.4981 13.7952 10.489 13.7428 10.489C13.6903 10.4867 13.6218 10.473 13.5899 10.4547C13.5579 10.4365 13.4849 10.4228 13.4256 10.4205C13.3662 10.4205 13.3115 10.4091 13.3046 10.3977C13.2978 10.384 13.2453 10.3749 13.1883 10.3749C13.1312 10.3749 13.0491 10.3589 13.0034 10.3406C12.9578 10.3224 12.8528 10.3064 12.7661 10.3064C12.6817 10.3064 12.6041 10.295 12.5972 10.2836C12.5904 10.2699 12.5151 10.2608 12.4307 10.2608C12.3462 10.2608 12.2413 10.2494 12.1979 10.2334C12.118 10.206 11.8579 10.1877 11.1026 10.1512C10.8812 10.1421 10.6873 10.1239 10.669 10.1102C10.6508 10.0988 10.507 10.0828 10.3495 10.0736C9.94336 10.0508 9.69692 10.0212 9.66041 9.99378C9.64443 9.98009 9.56456 9.96183 9.48242 9.95727C9.23597 9.93673 9.02831 9.9025 8.99865 9.8774C8.98268 9.86599 8.91194 9.85002 8.84348 9.84089C8.56965 9.81579 8.43273 9.79069 8.40535 9.76331C8.38938 9.74733 8.33005 9.73592 8.27072 9.73592C8.21139 9.73592 8.15434 9.72451 8.14749 9.71311C8.14065 9.69941 8.09501 9.69029 8.04937 9.69029C8.00373 9.69029 7.93527 9.67431 7.89876 9.65606C7.86454 9.6378 7.7938 9.62183 7.74588 9.62183C7.69796 9.62183 7.65232 9.61042 7.64547 9.59901C7.63863 9.58532 7.59299 9.57619 7.54735 9.57619C7.50171 9.57619 7.43325 9.56022 7.39674 9.54196C7.36251 9.52371 7.28949 9.50773 7.23701 9.50773C7.18452 9.50773 7.13204 9.4986 7.12063 9.4872C7.09553 9.46666 6.85136 9.44384 6.78519 9.45753ZM7.98091 9.93445C8.10414 10.0006 8.17944 10.0668 8.18172 10.1193C8.18172 10.1353 8.19085 10.1649 8.20226 10.1877C8.21367 10.2083 8.23877 10.2836 8.26159 10.3543C8.2981 10.4753 8.2981 10.489 8.26387 10.5574C8.24333 10.5985 8.22736 10.6555 8.22736 10.6852C8.22736 10.7149 8.21823 10.7445 8.20454 10.7514C8.19313 10.7582 8.18172 10.7833 8.18172 10.8039C8.18172 10.902 7.85313 11.1735 7.73675 11.1735C7.7048 11.1735 7.65916 11.1849 7.63634 11.2009C7.60211 11.2215 7.5793 11.2215 7.53138 11.2009C7.49943 11.1849 7.45151 11.1735 7.42641 11.1735C7.33285 11.1735 7.10922 10.9887 7.10922 10.9088C7.10922 10.8929 7.09781 10.8769 7.08184 10.8723C7.04533 10.8586 7.04989 10.4137 7.08412 10.4022C7.09781 10.3977 7.10922 10.3749 7.10922 10.3498C7.10922 10.2608 7.33741 9.98694 7.41043 9.98694C7.43325 9.98694 7.45151 9.97781 7.45151 9.9664C7.45151 9.95499 7.48117 9.93902 7.51997 9.92989C7.55648 9.92076 7.59299 9.90479 7.59983 9.89338C7.6295 9.84774 7.85541 9.87284 7.98091 9.93445ZM10.9702 10.3657C11.025 10.3863 11.0935 10.4137 11.1254 10.4273C11.2098 10.4661 11.4449 10.6989 11.4449 10.7445C11.4449 10.7674 11.4563 10.7856 11.4677 10.7856C11.4814 10.7856 11.4905 10.8084 11.4905 10.8358C11.4905 10.8655 11.5065 10.9088 11.5247 10.9317C11.5704 10.991 11.5704 11.1964 11.5247 11.2557C11.5065 11.2785 11.4905 11.3219 11.4905 11.3492C11.4905 11.3789 11.4814 11.4017 11.4677 11.4017C11.4563 11.4017 11.4449 11.4177 11.4449 11.4382C11.4449 11.4747 11.1984 11.744 11.1642 11.744C11.1551 11.744 11.1071 11.7691 11.0569 11.8011C11.0067 11.833 10.9406 11.8581 10.9109 11.8581C10.8812 11.8581 10.8516 11.8695 10.847 11.8855C10.831 11.9311 10.5047 11.938 10.4157 11.8946C10.3746 11.8741 10.329 11.8581 10.3108 11.8581C10.2606 11.8581 10.1031 11.7486 10.0324 11.6664C10.0118 11.6436 9.97759 11.6048 9.95706 11.5797C9.93424 11.5569 9.91598 11.5135 9.91598 11.4839C9.91598 11.4519 9.90685 11.42 9.89316 11.4131C9.88175 11.4063 9.87034 11.3333 9.87034 11.2534C9.87034 11.1735 9.88175 11.1005 9.89316 11.0937C9.90685 11.0868 9.91598 11.0549 9.91598 11.0229C9.91598 10.9933 9.92967 10.9453 9.94336 10.9157C10.0871 10.6555 10.2035 10.5118 10.2697 10.5118C10.2879 10.5118 10.3108 10.4958 10.3176 10.4775C10.3267 10.4593 10.3564 10.4433 10.3861 10.4433C10.4157 10.4433 10.4408 10.4319 10.4408 10.4205C10.4408 10.4068 10.4751 10.3977 10.5161 10.3954C10.5549 10.3954 10.6257 10.3794 10.669 10.3635C10.7763 10.3224 10.8561 10.3224 10.9702 10.3657ZM7.73218 11.8056C7.79151 11.8193 7.85313 11.8399 7.86682 11.8535C7.88279 11.8695 7.91246 11.8809 7.93299 11.8809C8.03568 11.8809 8.40991 12.1479 8.40991 12.2232C8.40991 12.2346 8.42132 12.246 8.43273 12.246C8.44642 12.246 8.45555 12.3191 8.45555 12.4172C8.45555 12.5153 8.44642 12.5883 8.43273 12.5883C8.42132 12.5883 8.40991 12.6134 8.40991 12.6431C8.40991 12.6728 8.39394 12.7093 8.37568 12.7252C8.35743 12.7412 8.34146 12.7663 8.34146 12.78C8.34146 12.8142 8.04937 13.0972 7.96038 13.1497C7.9193 13.1725 7.88507 13.1999 7.88507 13.209C7.88507 13.2181 7.87138 13.2273 7.85313 13.2273C7.83487 13.2273 7.80521 13.241 7.78923 13.2546C7.74131 13.3003 7.66144 13.3414 7.62493 13.3414C7.60896 13.3414 7.58158 13.3573 7.5656 13.3756C7.54963 13.3938 7.51768 13.4098 7.49486 13.4098C7.43553 13.4098 7.36251 13.4783 7.3762 13.5216C7.40359 13.6083 7.45379 13.6996 7.50171 13.7544C7.57701 13.8388 7.78923 13.9871 7.90333 14.0373C7.95581 14.0602 7.99917 14.0875 7.99917 14.099C7.99917 14.1081 8.02427 14.1172 8.05622 14.1172C8.08816 14.1172 8.11326 14.1263 8.11326 14.14C8.11326 14.1514 8.14065 14.1628 8.17716 14.1628C8.21139 14.1628 8.25931 14.1765 8.28441 14.1948C8.35058 14.2404 8.49206 14.2564 8.89824 14.2701C9.13556 14.2747 9.2702 14.2701 9.28617 14.2541C9.29758 14.2427 9.35006 14.2313 9.40255 14.2313C9.45275 14.2313 9.51436 14.2153 9.53718 14.1971C9.56228 14.1788 9.60564 14.1628 9.63302 14.1628C9.66269 14.1628 9.69235 14.1514 9.6992 14.14C9.70604 14.1263 9.74255 14.1172 9.77678 14.1172C9.81329 14.1172 9.85437 14.1012 9.87034 14.083C9.88632 14.0647 9.92739 14.0488 9.9639 14.0488C9.99813 14.0488 10.0346 14.0373 10.0415 14.0259C10.0483 14.0122 10.1054 14.0031 10.1647 14.0031C10.2583 14.0031 10.2811 14.0122 10.313 14.0602C10.361 14.1332 10.3587 14.2541 10.3085 14.3112C10.256 14.3728 10.1533 14.4367 10.1099 14.4367C10.0917 14.4367 10.0757 14.4458 10.0757 14.4549C10.0757 14.4755 9.91598 14.5508 9.86806 14.5508C9.8498 14.5508 9.81558 14.5667 9.79276 14.585C9.76766 14.6033 9.7243 14.6192 9.69692 14.6192C9.66725 14.6192 9.63759 14.6284 9.63074 14.6421C9.62389 14.6535 9.58282 14.6649 9.54175 14.6649C9.50295 14.6649 9.45731 14.6763 9.44362 14.69C9.41396 14.7196 9.27476 14.7539 9.11731 14.7721C9.06026 14.779 9.00093 14.7949 8.98724 14.8063C8.93247 14.8497 8.66777 14.8771 8.28441 14.8771C7.87138 14.8771 7.6295 14.852 7.58386 14.8063C7.56789 14.7904 7.51768 14.779 7.47205 14.779C7.42413 14.779 7.37849 14.7676 7.37164 14.7561C7.3648 14.7425 7.33741 14.7333 7.31459 14.7333C7.29177 14.7333 7.25754 14.7174 7.23701 14.6991C7.21875 14.6808 7.17996 14.6649 7.15258 14.6649C7.12519 14.6649 7.06815 14.6398 7.02707 14.6078C6.986 14.5759 6.94264 14.5508 6.93123 14.5508C6.90841 14.5508 6.64827 14.2906 6.59579 14.2153C6.52961 14.1195 6.44518 13.9347 6.45887 13.9118C6.46572 13.8981 6.49082 13.889 6.51364 13.889C6.53646 13.889 6.58666 13.873 6.62089 13.8548C6.65968 13.8343 6.74868 13.8206 6.84224 13.8206C6.93351 13.8206 6.99512 13.8114 6.99512 13.7977C6.99512 13.784 6.97002 13.7453 6.93808 13.711C6.90613 13.6768 6.88103 13.638 6.88103 13.6243C6.88103 13.6129 6.83083 13.549 6.76693 13.4874C6.70532 13.4258 6.65284 13.3573 6.65284 13.3345C6.65284 13.314 6.64371 13.2957 6.63002 13.2957C6.61861 13.2957 6.60035 13.2683 6.59351 13.2318C6.58438 13.1976 6.57069 13.1588 6.55928 13.1474C6.53646 13.1154 6.52961 12.8873 6.55015 12.8211C6.56156 12.7868 6.557 12.7709 6.53646 12.7709C6.50223 12.7686 6.42464 12.6226 6.42464 12.5587C6.42464 12.5381 6.41552 12.5176 6.40411 12.5107C6.36303 12.4834 6.35162 12.3191 6.38585 12.2415C6.40639 12.2004 6.42693 12.1456 6.43377 12.1182C6.45659 12.0452 6.6072 11.8969 6.70988 11.849C6.76009 11.8239 6.81713 11.7965 6.83539 11.7874C6.88103 11.7623 7.59299 11.776 7.73218 11.8056ZM14.3749 13.1497C14.3954 13.1565 14.4114 13.1862 14.4114 13.2159C14.4114 13.2432 14.4273 13.2797 14.4456 13.2957C14.4638 13.3117 14.4798 13.3482 14.4798 13.3779C14.4798 13.4075 14.4912 13.4326 14.5026 13.4326C14.5163 13.4326 14.5255 13.46 14.5255 13.4942C14.5255 13.5308 14.5414 13.5787 14.5597 13.6015C14.5779 13.6266 14.5939 13.67 14.5939 13.6996C14.5939 13.7293 14.603 13.7704 14.6145 13.7932C14.6418 13.8457 14.6943 14.496 14.6715 14.5302C14.6624 14.5439 14.6487 14.6443 14.6373 14.7539C14.6145 15.0094 14.5848 15.1623 14.5528 15.1943C14.5369 15.2102 14.5255 15.249 14.5255 15.2833C14.5255 15.3175 14.5163 15.354 14.5026 15.3609C14.4912 15.3677 14.4798 15.3996 14.4798 15.427C14.4798 15.4567 14.4638 15.4932 14.4456 15.5092C14.4273 15.5252 14.4114 15.5571 14.4114 15.5799C14.4114 15.6027 14.4022 15.6278 14.3885 15.6347C14.3771 15.6415 14.3657 15.6689 14.3657 15.694C14.3657 15.7191 14.3497 15.7442 14.3315 15.7511C14.3132 15.7602 14.2973 15.7784 14.2973 15.7967C14.2973 15.8286 14.1923 16.0089 14.1603 16.034C14.1535 16.0409 14.1238 16.0819 14.0965 16.1276C14.0417 16.2189 13.6948 16.5589 13.6583 16.5589C13.6446 16.5589 13.6104 16.5794 13.583 16.6068C13.5556 16.6319 13.5123 16.6638 13.4872 16.6752C13.4621 16.6866 13.4119 16.7163 13.3731 16.7391C13.3366 16.7642 13.2864 16.7848 13.2658 16.7848C13.243 16.7871 13.2248 16.7962 13.2248 16.8099C13.2248 16.8373 13.1403 16.8395 13.1244 16.8144C13.1084 16.7871 13.1586 16.6981 13.2316 16.6182C13.2658 16.5817 13.2932 16.5406 13.2932 16.5292C13.2932 16.5155 13.3069 16.4881 13.3252 16.4699C13.3434 16.4493 13.3845 16.3809 13.421 16.3193C13.4895 16.196 13.4963 16.1823 13.5579 16.0454C13.583 15.9952 13.6081 15.9496 13.6195 15.9473C13.6287 15.9427 13.6355 15.9176 13.6355 15.8903C13.6355 15.8629 13.6515 15.8195 13.6697 15.7967C13.688 15.7716 13.704 15.7328 13.704 15.71C13.704 15.6872 13.7154 15.6689 13.7268 15.6689C13.7405 15.6689 13.7496 15.6461 13.7473 15.6164C13.7473 15.589 13.7405 15.5799 13.7336 15.5959C13.7291 15.6119 13.6789 15.6438 13.6241 15.6689C13.5693 15.694 13.5168 15.7237 13.51 15.7374C13.5032 15.7488 13.4712 15.7602 13.4393 15.7602C13.4096 15.7602 13.3845 15.7693 13.3845 15.783C13.3845 15.7944 13.3617 15.8058 13.3343 15.8058C13.3046 15.8058 13.2613 15.8218 13.2385 15.8401C13.1791 15.8834 12.976 15.8857 12.9601 15.8423C12.9532 15.8241 13.0376 15.7214 13.1768 15.5799C13.3046 15.4544 13.4073 15.3426 13.4073 15.3312C13.4073 15.3221 13.4484 15.2696 13.4986 15.2125C13.5465 15.1555 13.6013 15.0847 13.6173 15.0528C13.6332 15.0208 13.656 14.9889 13.6652 14.9821C13.688 14.9661 13.7656 14.8337 13.8021 14.7493C13.8158 14.7151 13.8363 14.6877 13.8454 14.6877C13.8546 14.6877 13.8637 14.6672 13.8637 14.6421C13.8637 14.6169 13.8797 14.5896 13.8979 14.5827C13.9162 14.5736 13.9322 14.5439 13.9322 14.5143C13.9322 14.4846 13.9436 14.4595 13.955 14.4595C13.9687 14.4595 13.9778 14.439 13.9778 14.4161C13.9778 14.391 13.9961 14.3386 14.0166 14.2952C14.0873 14.156 14.0919 14.14 14.0919 14.0967C14.0919 14.0739 14.1079 14.0237 14.1261 13.9894C14.1444 13.9529 14.1603 13.8959 14.1603 13.8616C14.1603 13.8274 14.1718 13.7932 14.1832 13.7863C14.1969 13.7795 14.206 13.727 14.206 13.6745C14.206 13.6198 14.222 13.5376 14.2402 13.4942C14.2585 13.4486 14.2744 13.355 14.2744 13.2889C14.2744 13.1383 14.2904 13.1177 14.3749 13.1497Z" fill="#FAF9F5"/>
  <path d="M7.60189 10.2382C7.5129 10.2952 7.42847 10.3888 7.42847 10.4299C7.42847 10.4481 7.41934 10.471 7.40565 10.4778C7.37142 10.4983 7.37827 10.7265 7.41706 10.7995L7.45129 10.8657V10.7722C7.45129 10.722 7.46726 10.6603 7.48552 10.6352C7.50377 10.6124 7.51974 10.5736 7.51974 10.5508C7.51974 10.5303 7.53115 10.512 7.54256 10.512C7.55626 10.512 7.56538 10.4983 7.56538 10.4824C7.56538 10.4413 7.67492 10.3295 7.71371 10.3295C7.73196 10.3295 7.74794 10.3181 7.74794 10.3067C7.74794 10.2724 7.94646 10.2793 7.96016 10.3112C7.967 10.3295 7.97385 10.3249 7.97385 10.2998C7.97613 10.277 7.96016 10.261 7.93277 10.261C7.90995 10.261 7.87801 10.245 7.86203 10.2268C7.82324 10.1811 7.68404 10.1857 7.60189 10.2382Z" fill="#FAF9F5"/>
  <path d="M10.6576 10.7104C10.6211 10.7149 10.58 10.7309 10.5686 10.7423C10.5549 10.7537 10.5321 10.7629 10.5138 10.7629C10.4705 10.7629 10.3746 10.8838 10.2993 11.0344C10.2217 11.1919 10.2217 11.2078 10.2925 11.3425C10.3609 11.4725 10.4727 11.5775 10.5594 11.5958C10.5937 11.6049 10.6233 11.6209 10.6233 11.6323C10.6233 11.6437 10.6462 11.6528 10.6758 11.6505C10.7123 11.6505 10.7169 11.646 10.6918 11.6346C10.6188 11.6026 10.5617 11.5478 10.5458 11.4976C10.5366 11.4703 10.5184 11.4474 10.507 11.4474C10.4705 11.4474 10.4819 11.1143 10.5207 11.0823C10.5389 11.0664 10.5549 11.039 10.5549 11.0207C10.5549 10.9842 10.6439 10.8884 10.7374 10.8245C10.8013 10.7788 10.9884 10.772 11.0295 10.8131C11.0501 10.8336 11.0569 10.8336 11.0569 10.8062C11.0569 10.74 10.8219 10.683 10.6576 10.7104Z" fill="#FAF9F5"/>
  <path d="M5.76277 15.4977C5.7468 15.516 5.71485 15.532 5.69203 15.532C5.66921 15.532 5.64411 15.5411 5.63726 15.5548C5.63042 15.5662 5.60304 15.5776 5.57793 15.5776C5.55512 15.5776 5.53458 15.5867 5.53458 15.5958C5.53458 15.6073 5.49122 15.6324 5.43874 15.6552C5.38397 15.6757 5.32464 15.7031 5.30639 15.7168C5.28813 15.7282 5.25618 15.7442 5.23793 15.751C5.21967 15.7579 5.15122 15.7898 5.0896 15.8195C5.02571 15.8491 4.96182 15.8742 4.94584 15.8742C4.93215 15.8742 4.91846 15.8834 4.91846 15.8971C4.91846 15.9085 4.89336 15.9199 4.86369 15.9199C4.83175 15.9199 4.7998 15.929 4.79295 15.9427C4.78154 15.961 4.71081 15.9975 4.59899 16.0431C4.58074 16.0499 4.54879 16.0659 4.53053 16.0773C4.51228 16.0887 4.43469 16.1252 4.35939 16.1595C4.10381 16.2759 4.06274 16.2964 4.05589 16.3124C4.05133 16.3238 4.02395 16.3306 3.99428 16.3306C3.96462 16.3306 3.93723 16.3375 3.93267 16.3466C3.92354 16.3694 3.78206 16.4447 3.7524 16.4447C3.73871 16.4447 3.7022 16.4698 3.66797 16.5018C3.63374 16.5337 3.59495 16.5588 3.58126 16.5588C3.4877 16.5588 3.44434 16.803 3.51508 16.9376C3.53334 16.9741 3.54931 17.0266 3.54931 17.054C3.54931 17.0837 3.56072 17.1065 3.57213 17.1065C3.58582 17.1065 3.59495 17.1247 3.59495 17.1498C3.59495 17.1727 3.61092 17.2046 3.62918 17.2206C3.64743 17.2365 3.6634 17.2616 3.6634 17.2799C3.6634 17.2959 3.71361 17.362 3.7775 17.4259C3.87562 17.5263 3.90072 17.54 3.98287 17.54C4.03308 17.54 4.09241 17.5309 4.11522 17.5195C4.13576 17.5081 4.23845 17.4579 4.34113 17.4077C4.44154 17.3575 4.54423 17.305 4.56933 17.2936C4.71309 17.216 4.85913 17.1521 4.88423 17.1521C4.9002 17.1521 4.92531 17.1361 4.94128 17.1179C4.95725 17.0996 4.9892 17.0837 5.01202 17.0837C5.03712 17.0837 5.05537 17.0722 5.05537 17.0608C5.05537 17.0471 5.08048 17.038 5.11242 17.038C5.14437 17.038 5.16947 17.0289 5.16947 17.0198C5.16947 17.0084 5.21283 16.9833 5.26759 16.9604C5.37941 16.9125 5.56881 16.8258 5.72398 16.7505C5.78559 16.7208 5.84948 16.6957 5.86546 16.6957C5.88143 16.6957 5.90653 16.6798 5.9225 16.6615C5.93848 16.6432 5.97042 16.6273 5.99324 16.6273C6.01834 16.6273 6.0366 16.6159 6.0366 16.6045C6.0366 16.5908 6.05257 16.5816 6.07083 16.5816C6.08908 16.5816 6.137 16.5543 6.17352 16.52C6.23969 16.4607 6.24197 16.4561 6.24197 16.2393C6.24197 16.0203 6.24197 16.018 6.16211 15.9267C6.11875 15.8742 6.08224 15.824 6.08224 15.8126C6.08224 15.8035 6.05714 15.767 6.02519 15.7328C5.99324 15.6985 5.96814 15.6506 5.96814 15.6232C5.96814 15.5981 5.95673 15.5776 5.94532 15.5776C5.93163 15.5776 5.91109 15.5525 5.89968 15.5205C5.87458 15.4566 5.80613 15.4452 5.76277 15.4977Z" fill="#FAF9F5"/>
  <path d="M104.802 15.8723V20.4026H102.647V11.817H104.802V13.2084C104.949 12.8351 105.237 12.5014 105.667 12.2073C106.097 11.9132 106.702 11.7661 107.483 11.7661H109.044V13.921H107.16C106.323 13.921 105.718 14.0794 105.345 14.3961C104.983 14.7015 104.802 15.1936 104.802 15.8723Z" fill="#141413"/>
  <path d="M93.4319 12.852C94.1785 12.015 95.1682 11.5964 96.4012 11.5964C97.6342 11.5964 98.6183 12.0093 99.3536 12.8351C100.089 13.6495 100.456 14.7355 100.456 16.0929V16.4492H94.4669C94.5008 17.1505 94.7045 17.7218 95.0777 18.1629C95.451 18.5928 95.9487 18.8077 96.5709 18.8077C97.3175 18.8077 97.8944 18.5305 98.3016 17.9763H100.406C100.372 18.2364 100.281 18.5023 100.134 18.7738C99.987 19.0452 99.7721 19.328 99.4893 19.6221C99.2065 19.9162 98.8106 20.1594 98.3016 20.3517C97.7926 20.5327 97.2157 20.6232 96.5709 20.6232C95.2814 20.6232 94.2463 20.2047 93.4658 19.3676C92.6966 18.5192 92.312 17.4333 92.312 16.1098C92.312 14.7637 92.6853 13.6778 93.4319 12.852ZM96.4012 13.2593C95.3379 13.2593 94.7045 13.8475 94.5008 15.0239H98.2677C98.0527 13.8475 97.4306 13.2593 96.4012 13.2593Z" fill="#141413"/>
  <path d="M91.1977 11.8171L86.5485 23.9151H84.3767L85.768 20.3179L82.2727 11.8171H84.6821L86.854 17.4843L89.0089 11.8171H91.1977Z" fill="#141413"/>
  <path d="M78.5024 20.4036V19.148C78.3667 19.4647 78.0952 19.7871 77.6879 20.1152C77.2807 20.4319 76.7378 20.5903 76.0591 20.5903C75.0071 20.5903 74.1417 20.1887 73.463 19.3856C72.7956 18.5711 72.4619 17.4795 72.4619 16.1108C72.4619 14.7421 72.7956 13.6562 73.463 12.853C74.1417 12.0386 75.0071 11.6313 76.0591 11.6313C77.1789 11.6313 77.9877 12.1064 78.4854 13.0566V11.818H80.6403V20.4036H78.5024ZM78.5194 16.1108C78.5194 15.3416 78.3497 14.7195 78.0103 14.2444C77.671 13.7693 77.2015 13.5317 76.602 13.5317C75.9912 13.5317 75.5161 13.7693 75.1767 14.2444C74.8374 14.7195 74.6677 15.3416 74.6677 16.1108C74.6677 16.9026 74.8374 17.5361 75.1767 18.0112C75.5161 18.475 75.9912 18.7069 76.602 18.7069C77.2015 18.7069 77.671 18.4693 78.0103 17.9942C78.3497 17.5191 78.5194 16.8913 78.5194 16.1108Z" fill="#141413"/>
  <path d="M68 20.403V7.91479H70.1719V20.403H68Z" fill="#141413"/>
  <path d="M60.9246 11.6294C62.1863 11.4846 63.4042 11.6571 64.4304 12.4438C65.2675 13.2095 65.7529 14.3483 65.8591 15.4683V16.7231H59.5837C60.0182 17.8151 60.0188 17.8148 60.9089 18.4868C61.5432 18.6895 62.3222 18.6739 62.9275 18.3882C63.1446 18.2637 63.2515 18.1719 63.3982 17.9653C63.7979 17.6651 64.2416 17.7448 64.7253 17.7612C64.8256 17.7622 64.9249 17.7642 65.0271 17.7661C65.2723 17.7709 65.5182 17.776 65.7634 17.7847C65.1841 19.0861 64.4691 19.7683 63.156 20.2954C62.0023 20.6197 60.6225 20.4831 59.5837 19.9097C58.5603 19.2715 57.9415 18.3495 57.6287 17.1929C57.3614 15.7971 57.5891 14.4592 58.366 13.2681C58.9877 12.4166 59.8801 11.8419 60.9246 11.6294ZM62.7039 13.3979C62.1613 13.1586 61.5674 13.1383 61.0027 13.3179C60.1482 13.7128 59.9458 14.1798 59.5847 15.0825H63.8328C63.7671 14.82 63.7031 14.5649 63.6394 14.3101C63.4164 13.9161 63.0929 13.6258 62.7039 13.3979Z" fill="#141413"/>
  <path d="M48.9155 12.7878C50.1533 11.6727 51.7969 11.2829 53.3716 11.9568C53.7558 12.1788 54.0539 12.4535 54.3706 12.7644C54.4025 12.4458 54.4345 12.1268 54.4673 11.7986H56.3979C56.4047 12.9252 56.4097 14.0528 56.4126 15.1794C56.4145 15.7027 56.4165 16.2265 56.4194 16.7507C56.4233 17.2566 56.4243 17.7615 56.4253 18.2673C56.4263 18.4604 56.4273 18.6524 56.4282 18.8445C56.4408 20.4056 56.3615 21.706 55.2437 22.9109C54.0619 24.0029 52.687 24.043 51.1519 23.9822C50.1208 23.9068 49.345 23.419 48.6499 22.6843C48.3179 22.2789 47.9986 21.6986 47.9985 21.1638C48.3123 21.1464 48.6262 21.1354 48.9399 21.1267C49.0288 21.1219 49.1178 21.1179 49.2095 21.113C49.4613 21.1072 49.6822 21.1089 49.9292 21.1638C50.159 21.4409 50.1595 21.4408 50.3159 21.7429C50.505 21.8847 50.5052 21.8846 50.7075 21.9656C50.7722 21.9945 50.8373 22.0245 50.9048 22.0544C51.6356 22.3479 52.4757 22.3216 53.2085 22.0359C53.7859 21.7424 54.0977 21.4233 54.3159 20.8025C54.4115 20.4241 54.4007 20.0539 54.3892 19.6667C54.3872 19.5868 54.3862 19.5074 54.3843 19.4255C54.3814 19.2325 54.3764 19.0394 54.3706 18.8464L54.1431 19.074C53.421 19.7942 52.8021 20.0321 51.7827 20.0466C50.6117 20.0379 49.7299 19.6644 48.8804 18.8708C47.9506 17.9102 47.7585 16.7126 47.7788 15.4314C47.8194 14.4197 48.2407 13.5293 48.9155 12.7878ZM53.4048 13.5349C52.5427 13.0533 51.4112 13.0654 50.6206 13.6707C50.0606 14.1708 49.7818 14.7437 49.7036 15.49C49.6785 16.3889 49.8153 17.066 50.4399 17.7312C51.0395 18.2728 51.6171 18.3217 52.4126 18.2966C53.0459 18.2348 53.5581 17.9775 53.9849 17.4939C54.5361 16.7438 54.5407 15.9757 54.4673 15.0798C54.3398 14.3992 53.9648 13.923 53.4048 13.5349Z" fill="#141413"/>
  <path d="M41.1157 11.7747C42.5754 11.2901 44.055 11.6924 45.3052 12.509C45.7927 12.8874 46.0808 13.3767 46.3569 13.9202C46.3975 13.9955 46.4385 14.0714 46.48 14.1487C46.9441 15.1749 46.9117 16.5957 46.5864 17.6624C46.1046 18.8499 45.3643 19.6258 44.2202 20.1809C43.2152 20.5892 41.7525 20.5557 40.7397 20.2034C39.7174 19.7332 38.9689 18.9172 38.5122 17.9006C38.1212 16.8262 38.0326 15.4164 38.436 14.3274C39.0182 13.1022 39.8393 12.2555 41.1157 11.7747ZM43.3657 13.4358C42.4256 13.0412 41.5529 13.2737 40.854 14.0178C40.2313 14.8037 40.1129 15.6063 40.2104 16.5901C40.3649 17.3633 40.6936 17.9968 41.3364 18.4592C41.8993 18.8338 42.5294 18.828 43.1802 18.7131C43.7678 18.5191 44.1653 18.0945 44.4741 17.5725C44.8661 16.7123 44.8804 15.6744 44.6304 14.7678C44.3591 14.1693 43.9478 13.7379 43.3657 13.4358Z" fill="#141413"/>
  <path d="M36.7471 6.01343C36.8259 6.0156 36.9048 6.01711 36.9863 6.01929C37.5433 6.03668 38.0957 6.06518 38.6484 6.14233C38.693 6.14829 38.738 6.1544 38.7842 6.16089C39.1607 6.21686 39.5158 6.30528 39.8896 6.39331V8.78491C39.7315 8.73111 39.5731 8.67725 39.4102 8.62183C38.5341 8.32947 37.662 8.14101 36.7471 8.02417V19.8718H34.7236C34.7061 19.6566 34.688 19.4412 34.6699 19.2195C34.621 19.2515 34.572 19.284 34.5215 19.3171C34.07 19.6072 33.6408 19.8264 33.126 19.9802C33.0626 20.0003 33.062 20.0002 32.998 20.0203C31.9696 20.2887 30.9309 20.0279 30.0361 19.491C29.8467 19.3579 29.6742 19.2139 29.5039 19.0564C29.4636 19.0201 29.4232 18.9844 29.3818 18.947C28.559 18.1656 28.0586 16.991 28.0127 15.8503C28.01 15.8119 28.0071 15.7727 28.0039 15.7332C27.9538 14.4924 28.418 13.3383 29.2041 12.4089C30.012 11.5351 31.0093 10.9818 32.1963 10.9382C33.0745 10.9562 33.9642 11.234 34.6699 11.7742C34.6875 10.4829 34.7055 9.19148 34.7236 7.86108C33.461 7.89369 33.4606 7.89351 32.2041 7.98315C32.0993 7.99347 32.0988 7.99382 31.9922 8.00464C31.001 8.1079 30.0397 8.3135 29.0869 8.60913C28.9251 8.65911 28.7653 8.70142 28.5986 8.73022C28.5811 8.69442 28.563 8.65872 28.5449 8.62183C29.8003 7.00716 31.9097 6.35612 33.834 6.08765C34.1317 6.05721 34.4248 6.06388 34.7236 6.06714V5.198H36.7471V6.01343ZM32.29 12.946C31.7468 12.9395 31.3286 13.0724 30.8887 13.405C30.3962 13.83 29.9734 14.4569 29.918 15.1257C29.8823 16.0284 29.9749 16.7687 30.5693 17.4812C31.0204 17.9435 31.5406 18.1941 32.1807 18.2136C32.2258 18.2136 32.2694 18.2141 32.3135 18.2146C32.9339 18.2195 33.4913 18.0088 33.9482 17.573C34.4483 17.0285 34.7444 16.4347 34.7402 15.6794C34.7392 15.629 34.7384 15.5798 34.7373 15.531C34.7336 14.8729 34.581 14.3064 34.1475 13.7917C33.6431 13.2608 33.1744 12.9665 32.4395 12.948C32.3641 12.9469 32.364 12.9466 32.29 12.946Z" fill="#141413"/>
</svg>
